<svg xmlns="http://www.w3.org/2000/svg" xmlns:xlink="http://www.w3.org/1999/xlink" width="60.5" height="44" viewBox="0 0 60.5 44"><defs><linearGradient id="a" x1="0.367" y1="1.113" x2="0.385" y2="-0.158" gradientUnits="objectBoundingBox"><stop offset="0" stop-color="#eb7373"/><stop offset="1" stop-color="#be6161"/></linearGradient></defs><g transform="translate(0 0)"><path d="M50.5,37l-11-11h8.25A16.513,16.513,0,0,0,31.25,9.5a16.144,16.144,0,0,0-7.7,1.925L19.535,7.41A21.961,21.961,0,0,1,53.25,26H61.5ZM14.75,26a16.513,16.513,0,0,0,16.5,16.5,16.144,16.144,0,0,0,7.7-1.925l4.015,4.015A21.961,21.961,0,0,1,9.25,26H1L12,15,23,26Z" transform="translate(-1 -4)" fill="url(#a)"/></g></svg>