<svg xmlns="http://www.w3.org/2000/svg" xmlns:xlink="http://www.w3.org/1999/xlink" width="44.267" height="44" viewBox="0 0 44.267 44"><defs><linearGradient id="a" x1="0.367" y1="1.113" x2="0.385" y2="-0.158" gradientUnits="objectBoundingBox"><stop offset="0" stop-color="#eb7373"/><stop offset="1" stop-color="#be6161"/></linearGradient></defs><path d="M44.643,37.064,26.36,18.781A12.9,12.9,0,0,0,23.346,4.918,13.282,13.282,0,0,0,8.479,2.306l8.639,8.639L11.09,16.972,2.25,8.333A12.948,12.948,0,0,0,4.862,23.2a12.9,12.9,0,0,0,13.863,3.014L37.008,44.5a1.942,1.942,0,0,0,2.813,0l4.621-4.621a1.81,1.81,0,0,0,.2-2.813Z" transform="translate(-0.956 -1.1)" fill="url(#a)"/></svg>